<svg height="960" viewBox="0 0 960 960" width="960" xmlns="http://www.w3.org/2000/svg"><path d="m640 4c39.764502 0 72 32.235498 72 72v680c0 39.764502-32.235498 72-72 72h-21v62c0 28.431619-22.817897 51.533832-51.140085 52h-28.859915v18h-20v-18h-29v18h-20l.000468-18.602591c-2.613558-.401186-5.188535-1.000596-7.703949-1.791932l-.053519-.017477-18.642-4.572-.305163-.067837c-23.166384-5.340758-39.950452-25.857684-40.290572-49.923196l-.005265-.745412v-60.650555l-93.894-20.336-.50267-.055275c-33.923144-4.034756-60.054069-32.623304-60.594782-67.219626l-.008548-1.094491v-612.142802c0-27.5967288 16.396906-52.0727669 40.986914-62.9365381l.540086-.2352679.224458-.1094649c.288669-.139563.579514-.2759108.872501-.4089891l.44108-.1971586 102.739961-45.1853874.220619-.1299447c5.46272-3.1440739 11.333601-5.56745693 17.477002-7.19119856l.839413-.21645544c5.721985-1.4377748 11.617189-2.1704013 17.576182-2.1704013zm-61 804.355163h-113v81.644837c0 6.627417 5.372583 12 12 12h89c6.627417 0 12-5.372583 12-12zm-132.991299-.595689-3.008701-.000474v76.520555c0 3.08811 1.166488 5.903773 3.082877 8.030401-.055213-.763223-.082877-1.533359-.082877-2.309956v-81.644837c0-.199257.002914-.397834.008701-.595689zm225.991299-252.516474-273.965054 3.4749-.126946-.0009.000127 197.042717c0 17.673112 14.326888 32 32 32h210.091873c17.673112 0 32-14.326888 32-32zm-292.642945-491.4837264-72.188381 31.7493151-.000559.1222831c-11.169188 3.9626179-19.168115 14.6221512-19.168115 27.1499342v612.142802c0 15.356882 12.019582 27.90644 27.164408 28.754336l67.911867 14.70954c-3.311478-6.841033-5.168148-14.517576-5.168148-22.627767v-679.759717c0-4.2162642.501797-8.3153274 1.448928-12.2407264zm260.642945-19.7592736h-210.081784l-.591371.0051735c-.091164.001624-.182234.0036291-.27321.006014l-.341635.0108125.137-.005-.076172.0027633-.070828.0022367-.022.001-.703213.034939c-.238767.0142933-.476838.0312065-.714189.0507123-1.767575.1452614-3.495207.4343035-5.172702.8558113-3.512578.8832189-6.794509 2.3471144-9.737788 4.2836802l-.031038.0137954c-8.682808 5.7227013-14.412943 15.5612092-14.412943 26.7380618l-.000127 462.717 273.965181-3.47377.126819-.00023v-459.243c0-17.673112-14.326888-32-32-32zm-11.471615 24.2259094c.235824.0123591.470258.0285509.703277.0485167.239516.0046689.480498.0135224.722328.0261962 14.308294.7498658 24.264322 14.4896691 23.460526 29.8270098-.803796 15.3373409-12.141485 27.9611879-26.449778 27.2113219-.24442-.01281-.487569-.02941-.729416-.049744-.230676-.004393-.462953-.012746-.69619-.024969-13.792854-.722853-22.831271-14.557026-22.03492-29.7522971.79635-15.1952708 11.231318-28.0088873 25.024173-27.2860345zm-.632659 20.2071498-.144893.0568935c-1.920121.7859446-3.936856 3.6299623-4.251637 7.7221545-.008982.1150106-.016311.2304997-.022394.3465558l-.013093.3173318c-.126916 4.2218552 1.676252 7.3229282 3.559522 8.2246812.341655-.2102.738054-.562442 1.146208-1.063634 1.328479-1.631305 2.268446-4.1893923 2.421276-7.1055547.152829-2.9161623-.514596-5.5584894-1.665279-7.319722-.3537-.541371-.711282-.9332348-1.02971-1.1787061z"/></svg>