<?xml version="1.0" encoding="UTF-8"?>
<!-- Generator: Adobe Illustrator 21.0.0, SVG Export Plug-In . SVG Version: 6.00 Build 0)  -->
<svg width="508.55" height="488.92" version="1.1" viewBox="0 0 508.55 488.92" xml:space="preserve" xmlns="http://www.w3.org/2000/svg">
<g transform="translate(-41.393 -102.48)">
	<path d="m544.6 524.2-208.3-397.2c-17.2-32.7-64-32.7-81.2 0l-208.4 397.2c-16 30.5 6.1 67.2 40.6 67.2h416.7c34.5 0 56.7-36.6 40.6-67.2zm-271.5-257.7c0-12.9 10.4-23.3 23.3-23.3s23.3 10.4 23.3 23.3v133.9c0 12.9-10.4 23.3-23.3 23.3s-23.3-10.4-23.3-23.3zm22.6 257c-18.6 0-33.6-15.1-33.6-33.6 0-18.6 15.1-33.6 33.6-33.6 18.6 0 33.6 15.1 33.6 33.6s-15.1 33.6-33.6 33.6z"/>
</g>
</svg>
