<?xml version="1.0" encoding="UTF-8"?>
<svg width="960px" height="960px" version="1.1" viewBox="0 0 960 960" xmlns="http://www.w3.org/2000/svg">
 <path d="m892.5 111c10.931 0 19.813 8.7687 19.997 19.656l0.00291 0.34449v70h12.5c17.673 0 32 14.327 32 32v132c0 17.673-14.327 32-32 32h-15v51c0 17.673-14.327 32-32 32h-33c0 203.79-164.97 369-368.5 369s-368.5-165.21-368.5-369c0-203.79 164.98-369 368.5-369 11.046 0 20 8.9543 20 20 0 10.931-8.7687 19.813-19.656 19.997l-0.34449 0.00291c-181.42 0-328.5 147.29-328.5 329 0 181.71 147.08 329 328.5 329 179.61 0 325.56-144.35 328.46-323.56l0.04401-5.441h-28c-17.673 0-32-14.327-32-32v-51h-21c-17.673 0-32-14.327-32-32v-132c0-17.673 14.327-32 32-32h14.5v-70c0-11.046 8.9543-20 20-20 10.931 0 19.813 8.7687 19.997 19.656l0.00291 0.34449v70h94v-70c0-11.046 8.9543-20 20-20z"/>
 <path d="m522.54 366.56v226.89c0 4.7995 3.9269 8.7264 8.7264 8.7264h34.906c4.7995 0 8.7264-3.9269 8.7264-8.7264v-226.89c0-4.7995-3.9269-8.7264-8.7264-8.7264h-34.906c-4.7995 0-8.7264 3.9269-8.7264 8.7264zm-85.083 226.89v-226.89c0-4.7995-3.9269-8.7264-8.7264-8.7264h-34.906c-4.7995 0-8.7264 3.9269-8.7264 8.7264v226.89c0 4.7995 3.9269 8.7264 8.7264 8.7264h34.906c4.7995 0 8.7264-3.9269 8.7264-8.7264z" stroke-width=".5454"/>
</svg>
